<svg xmlns="http://www.w3.org/2000/svg" version="1.1" xmlns:xlink="http://www.w3.org/1999/xlink" xmlns:svgjs="http://svgjs.dev/svgjs" width="1000" height="803" viewBox="0 0 1000 803"><g transform="matrix(1,0,0,1,0,0)"><svg viewBox="0 0 448 360" data-background-color="#c9efc7" preserveAspectRatio="xMidYMid meet" height="803" width="1000" xmlns="http://www.w3.org/2000/svg" xmlns:xlink="http://www.w3.org/1999/xlink"><g id="tight-bounds" transform="matrix(1,0,0,1,0,0)"><svg viewBox="0 0 448 360" height="360" width="448"><g><svg></svg></g><g><svg viewBox="0 0 448 360" height="360" width="448"><g><path d="M193.855 44.683c1.378 0 2.494 1.116 2.495 2.494 0 1.378-1.116 2.494-2.495 2.495h-23.846l-17.167 17.167c-0.973 0.973-2.551 0.973-3.53 0-0.973-0.973-0.973-2.551 0-3.529l13.644-13.645h-40.378c-11.518 0-19.151 2.688-23.815 8.113-4.739 5.519-6.66 14.056-6.66 25.63 0 0.069 0 0.137-0.006 0.206l0.212 36.692 14.692-14.692c0.973-0.973 2.551-0.973 3.53 0 0.973 0.973 0.973 2.551 0 3.53l-18.178 18.178c0.206 35.832 0.193 71.358-0.013 107.19 25.486 25.2 50.617 50.312 75.811 75.791h25.38c1.378 0 2.494 1.116 2.495 2.495 0 1.378-1.116 2.494-2.495 2.494h-20.448l25.942 26.241 0.006-0.006c8.188 8.188 15.577 12.859 22.824 13.413 7.146 0.543 14.442-2.956 22.586-11.093l28.555-28.555h-20.722c-1.378 0-2.494-1.116-2.495-2.494 0-1.378 1.116-2.494 2.495-2.495h25.711l16.625-16.625c0.973-0.973 2.551-0.973 3.529 0 0.973 0.973 0.973 2.551 0 3.53l-13.101 13.102h40.377c11.518 0 19.151-2.688 23.815-8.113 4.739-5.519 6.66-14.056 6.66-25.63h0.013l-0.212-36.898-16.014 16.014c-0.973 0.973-2.551 0.973-3.53 0-0.973-0.973-0.973-2.551 0-3.53l19.5-19.5c-0.206-35.832-0.193-71.358 0.013-107.19-25.486-25.2-50.617-50.312-75.811-75.791h-26.147c-1.378 0-2.494-1.116-2.495-2.495 0-1.378 1.116-2.494 2.495-2.494h21.215l-25.824-26.123c-0.044-0.037-0.081-0.075-0.124-0.112-8.188-8.188-15.577-12.859-22.824-13.413-7.146-0.543-14.442 2.956-22.586 11.093l-28.555 28.555h18.858zM122.578 44.683h45.367l32.078-32.078c9.248-9.248 17.81-13.195 26.484-12.534 8.568 0.649 16.956 5.824 25.985 14.854 0.05 0.05 0.094 0.094 0.137 0.143l29.278 29.615h43.508c13.071 0 21.919 3.268 27.594 9.871 5.6 6.517 7.864 16.101 7.864 28.867 0 0.081-0.006 0.156-0.012 0.23l-0.225 39.742 28.43 28.112 0.006-0.006c9.03 9.03 14.206 17.411 14.854 25.985 0.661 8.674-3.293 17.236-12.534 26.484l-30.768 30.768 0.237 41.843h0.012c0 12.765-2.27 22.35-7.864 28.867-5.675 6.604-14.524 9.872-27.594 9.871h-45.366l-32.078 32.078c-9.248 9.248-17.81 13.195-26.484 12.534-8.568-0.649-16.956-5.824-25.985-14.854l0.006-0.006-29.421-29.758h-43.509c-13.071 0-21.919-3.268-27.594-9.872-5.6-6.517-7.864-16.101-7.863-28.866h0.012l0.231-39.972-28.293-27.969c-0.05-0.044-0.1-0.087-0.143-0.137-9.03-9.03-14.206-17.411-14.854-25.985-0.661-8.674 3.293-17.236 12.534-26.484l30.768-30.768-0.237-41.607c-0.006-0.075-0.012-0.156-0.012-0.23 0-12.765 2.27-22.35 7.864-28.867 5.675-6.604 14.524-9.872 27.594-9.871zM87.682 179.997l-0.274-47.724-27.276 27.276c-8.138 8.138-11.636 15.44-11.094 22.587 0.549 7.246 5.226 14.642 13.413 22.823 0.037 0.037 0.081 0.081 0.113 0.125l24.837 24.551 0.281-49.644zM92.303 241.483l-0.2 35.09h0.013c0 11.58 1.921 20.117 6.66 25.63 4.664 5.432 12.297 8.113 23.815 8.113h38.576l-33.55-33.936-35.308-34.903zM325.415 49.672h-38.575l33.549 33.936 35.308 34.902 0.2-34.884c-0.006-0.069-0.006-0.137-0.007-0.205 0-11.58-1.921-20.117-6.66-25.63-4.664-5.432-12.297-8.113-23.815-8.113zM360.599 130.352l-0.281 49.645 0.274 47.724 27.276-27.276c8.138-8.138 11.636-15.44 11.094-22.587-0.549-7.252-5.226-14.642-13.413-22.824l0.006-0.006-24.956-24.669z" fill="#0d613a" fill-rule="nonzero" stroke="none" stroke-width="1" stroke-linecap="butt" stroke-linejoin="miter" stroke-miterlimit="10" stroke-dasharray="" stroke-dashoffset="0" font-family="none" font-weight="none" font-size="none" text-anchor="none" style="mix-blend-mode: normal" data-fill-palette-color="tertiary"></path></g><g transform="matrix(1,0,0,1,134.08999999999997,90.08999999999999)"><svg viewBox="0 0 179.82000000000002 179.82000000000002" height="179.82000000000002" width="179.82000000000002"><g><svg viewBox="0 0 179.82000000000002 179.82000000000002" height="179.82000000000002" width="179.82000000000002"><g><svg viewBox="0 0 179.82000000000002 179.82000000000002" height="179.82000000000002" width="179.82000000000002"><g id="textblocktransform"><svg viewBox="0 0 179.82000000000002 179.82000000000002" height="179.82000000000002" width="179.82000000000002" id="textblock"><g><svg viewBox="0 0 179.82000000000002 179.82000000000002" height="179.82000000000002" width="179.82000000000002"><g transform="matrix(1,0,0,1,36.93002441959793,36.93002441959793)"><svg viewBox="0 0 105.95995116080417 105.95995116080417" height="105.95995116080417" width="105.95995116080417"><g><circle r="53" cx="52.97997558040208" cy="52.97997558040208" fill="#0d613a" data-fill-palette-color="accent"></circle></g></svg></g><g><path d="M7.908 65.456l-0.006 0.436 9.696 3.783-1.061 2.721-12.494-4.874 1.054-2.702 0.78 0.304c-0.237-1.452-0.164-2.67 0.22-3.653v0c0.564-1.446 1.382-2.344 2.454-2.693v0c-0.221-1.833-0.038-3.501 0.549-5.005v0c0.292-0.749 0.647-1.341 1.066-1.777 0.421-0.442 0.939-0.73 1.553-0.863 0.621-0.13 1.341-0.12 2.159 0.031 0.822 0.16 1.782 0.454 2.879 0.882v0l6.699 2.613-1.05 2.693-6.623-2.583c-1.345-0.525-2.357-0.759-3.037-0.703-0.671 0.053-1.176 0.513-1.515 1.383v0c-0.277 0.71-0.423 1.582-0.439 2.613v0l0.004 0.495c0.401 0.003 1.493 0.352 3.276 1.048v0l6.47 2.524-1.05 2.693-6.423-2.506c-0.749-0.292-1.386-0.504-1.912-0.636-0.517-0.136-0.956-0.19-1.318-0.163-0.358 0.036-0.659 0.171-0.903 0.404-0.242 0.227-0.451 0.566-0.627 1.016v0c-0.312 0.799-0.446 1.639-0.401 2.519z" fill="#0d613a" data-fill-palette-color="primary"></path><path d="M30.461 31.251v0l4.525 4.102c0.302 0.255 0.587 0.376 0.857 0.363 0.26-0.013 0.542-0.147 0.848-0.403v0l1.595 1.556c-1.043 1.15-2.085 1.809-3.128 1.975v0c-0.448 1.478-1.171 2.767-2.168 3.867v0c-1.788 1.973-3.737 2.003-5.845 0.091v0c-1.004-0.91-1.49-1.833-1.46-2.77 0.026-0.941 0.504-2.016 1.433-3.223v0l2.106-2.764-0.711-0.645c-0.53-0.48-1.006-0.7-1.428-0.661-0.422 0.04-0.837 0.284-1.244 0.734v0c-0.384 0.424-0.804 0.912-1.259 1.464-0.455 0.553-0.943 1.172-1.463 1.858v0l-0.539 0.67-1.604-1.302c1.001-1.794 2.037-3.282 3.108-4.462v0c1.107-1.221 2.157-1.863 3.152-1.926 0.995-0.063 2.07 0.429 3.225 1.476zM33.394 37.824l-2.641-2.394-1.866 2.5c-0.752 0.991-0.671 1.901 0.242 2.728v0c0.913 0.828 1.738 0.836 2.474 0.024v0c0.622-0.686 1.152-1.483 1.59-2.392v0z" fill="#0d613a" data-fill-palette-color="primary"></path><path d="M44.878 18.753l-0.272 0.341 5.338 8.935-2.508 1.498-6.878-11.513 2.49-1.487 0.43 0.719c0.75-1.321 1.616-2.274 2.597-2.861v0c0.766-0.457 1.464-0.736 2.095-0.835 0.631-0.099 1.234-0.012 1.811 0.262 0.579 0.265 1.144 0.713 1.695 1.344 0.551 0.63 1.124 1.443 1.717 2.436v0l3.688 6.173-2.482 1.482-3.645-6.102c-0.374-0.625-0.722-1.135-1.045-1.53-0.313-0.392-0.627-0.684-0.941-0.877-0.31-0.187-0.637-0.262-0.979-0.225-0.342 0.038-0.721 0.181-1.135 0.429v0c-0.766 0.457-1.424 1.061-1.976 1.811z" fill="#0d613a" data-fill-palette-color="primary"></path><path d="M75.353 18.257v0l-6.222 1.331-3.842-17.958 6.222-1.331c1.378-0.295 2.567-0.372 3.565-0.23 0.998 0.142 1.851 0.513 2.557 1.114 0.705 0.594 1.287 1.41 1.746 2.446 0.459 1.037 0.849 2.308 1.17 3.813v0c0.283 1.325 0.46 2.575 0.531 3.751 0.062 1.17-0.071 2.223-0.4 3.156-0.331 0.927-0.918 1.728-1.763 2.404-0.838 0.674-2.026 1.175-3.564 1.504zM77.533 8.087v0c-0.232-1.085-0.488-2.002-0.766-2.75-0.277-0.742-0.625-1.328-1.045-1.761-0.426-0.431-0.934-0.705-1.524-0.823-0.591-0.124-1.305-0.097-2.144 0.083v0l-3.306 0.707 2.75 12.854 3.306-0.707c0.992-0.212 1.724-0.585 2.195-1.117 0.471-0.532 0.775-1.144 0.913-1.835 0.136-0.698 0.149-1.452 0.038-2.264-0.11-0.805-0.248-1.601-0.417-2.387z" fill="#0d613a" data-fill-palette-color="primary"></path><path d="M105.63 8.91v0l-0.743 6.063c-0.035 0.394 0.031 0.697 0.197 0.909 0.16 0.205 0.433 0.358 0.818 0.461v0l-0.352 2.2c-1.541-0.189-2.68-0.661-3.418-1.418v0c-1.466 0.486-2.936 0.638-4.409 0.458v0c-2.643-0.324-3.791-1.899-3.444-4.724v0c0.165-1.345 0.639-2.275 1.423-2.789 0.784-0.521 1.937-0.75 3.459-0.687v0l3.473 0.127 0.117-0.953c0.087-0.71-0.007-1.225-0.284-1.547-0.276-0.322-0.715-0.52-1.316-0.594v0c-0.568-0.07-1.208-0.131-1.922-0.184-0.714-0.053-1.501-0.095-2.362-0.125v0l-0.858-0.054 0.14-2.061c2.043-0.216 3.856-0.227 5.437-0.033v0c1.636 0.201 2.766 0.689 3.391 1.465 0.625 0.776 0.843 1.938 0.653 3.486zM101.949 15.096l0.434-3.538-3.118-0.084c-1.243-0.043-1.94 0.548-2.09 1.771v0c-0.15 1.223 0.319 1.902 1.407 2.035v0c0.919 0.113 1.876 0.086 2.871-0.08v0z" fill="#0d613a" data-fill-palette-color="primary"></path><path d="M125.409 10.828l3.404 1.443-0.976 2.304-3.405-1.443-2.3 5.426c-0.21 0.495-0.371 0.911-0.484 1.248-0.116 0.343-0.162 0.627-0.139 0.851 0.023 0.224 0.108 0.408 0.254 0.551 0.15 0.152 0.375 0.292 0.676 0.42v0l2.054 0.782-0.791 2.205c-1.162-0.241-2.048-0.491-2.655-0.748v0c-0.69-0.292-1.238-0.613-1.644-0.964-0.409-0.344-0.683-0.752-0.823-1.225-0.142-0.467-0.145-1.019-0.008-1.656 0.14-0.643 0.397-1.407 0.771-2.291v0l2.428-5.727-1.58-0.67 0.977-2.304 1.58 0.67 1.515-3.573 2.661 1.128z" fill="#0d613a" data-fill-palette-color="primary"></path><path d="M147.121 29.74v0l-3.812 4.772c-0.236 0.317-0.339 0.61-0.308 0.878 0.029 0.258 0.181 0.532 0.455 0.821v0l-1.453 1.689c-1.213-0.969-1.935-1.968-2.167-2.999v0c-1.503-0.355-2.834-0.996-3.995-1.922v0c-2.08-1.661-2.232-3.604-0.456-5.828v0c0.846-1.059 1.737-1.602 2.674-1.629 0.941-0.033 2.043 0.377 3.306 1.228v0l2.89 1.93 0.599-0.751c0.446-0.559 0.636-1.047 0.57-1.466-0.066-0.419-0.336-0.817-0.809-1.196v0c-0.447-0.357-0.96-0.745-1.541-1.164-0.58-0.42-1.228-0.868-1.945-1.345v0l-0.703-0.496 1.2-1.682c1.853 0.887 3.402 1.828 4.648 2.823v0c1.288 1.028 1.994 2.037 2.119 3.026 0.125 0.989-0.299 2.093-1.272 3.311zM140.743 33.077l2.225-2.785-2.611-1.706c-1.036-0.688-1.939-0.551-2.708 0.412v0c-0.769 0.963-0.725 1.787 0.131 2.471v0c0.724 0.578 1.552 1.057 2.486 1.436v0z" fill="#0d613a" data-fill-palette-color="primary"></path><path d="M159.322 43.582l-7.594 5.465-1.706-2.371 10.885-7.834 1.694 2.354-1.31 0.943c1.66 0.651 3.061 1.514 4.203 2.588v0l-2.371 1.706c-1.099-1.038-2.185-1.876-3.256-2.514v0z" fill="#0d613a" data-fill-palette-color="primary"></path><path d="M171.688 57.423l-11.453 7.807 0.776 2.174-5.964 0.426 0.964 2.703 19.766-1.653-0.972-2.722-11.237 0.995-0.244-0.683 9.325-6.353z" fill="#0d613a" data-fill-palette-color="primary"></path><path d="M15.539 112.927l-8.492 4.897 0.821 2.396 7.828-0.944-6.759 4.065 0.815 2.377 9.717-1.322-0.533-1.555-8.273 1.377-0.099-0.29 7.204-4.401-0.592-1.73-8.387 0.952-0.096-0.28 7.379-3.986z" fill="#0d613a" data-fill-palette-color="primary"></path><path d="M14.214 135.296l0.71 1.403 8.586-4.342-0.71-1.404-3.664 1.853-1.876-3.709 3.664-1.853-0.701-1.386-8.586 4.343 0.701 1.385 3.709-1.876 1.877 3.709z" fill="#0d613a" data-fill-palette-color="primary"></path><path d="M16.905 139.804l3.367 5.047 1.147-0.766-2.506-3.755 2.337-1.559 2.035 3.05 1.121-0.748-2.035-3.05 2.269-1.514 2.505 3.756 1.13-0.754-3.367-5.047z" fill="#0d613a" data-fill-palette-color="primary"></path><path d="M25.608 151.274l1.729-3.273-1.461-1.734-2.624 2.211-1.001-1.187 7.358-6.2 2.35 2.789c1.4 1.661 1.318 3.15-0.244 4.466v0c-1.047 0.882-2.093 1.078-3.138 0.587v0l-1.864 3.654zM30.674 147.126v0c0.88-0.741 0.965-1.534 0.254-2.377v0l-1.35-1.602-2.671 2.251 1.369 1.625c0.36 0.427 0.748 0.639 1.163 0.636 0.411-0.008 0.823-0.186 1.235-0.533z" fill="#0d613a" data-fill-palette-color="primary"></path><path d="M29.004 154.82l4.406 4.171 0.948-1.001-3.279-3.104 1.931-2.039 2.663 2.521 0.927-0.98-2.663-2.52 1.875-1.981 3.279 3.104 0.933-0.987-4.405-4.171z" fill="#0d613a" data-fill-palette-color="primary"></path><path d="M43.171 156.197l2.266 1.535-4.617 6.816 1.303 0.882 4.616-6.816 2.241 1.518 0.779-1.15-5.809-3.935z" fill="#0d613a" data-fill-palette-color="primary"></path><path d="M46.689 168.288l5.327 2.905 0.66-1.211-3.963-2.162 1.344-2.465 3.22 1.755 0.645-1.183-3.219-1.756 1.306-2.394 3.963 2.161 0.651-1.192-5.327-2.905z" fill="#0d613a" data-fill-palette-color="primary"></path><path d="M57.815 173.804v0c-0.648-0.267-1.152-0.574-1.509-0.921-0.355-0.353-0.586-0.768-0.691-1.245-0.099-0.475-0.081-1.028 0.053-1.658 0.141-0.627 0.38-1.35 0.717-2.168v0c0.34-0.825 0.678-1.503 1.015-2.034 0.346-0.535 0.72-0.933 1.122-1.194 0.406-0.252 0.858-0.375 1.356-0.369 0.498 0.006 1.071 0.143 1.72 0.41v0c0.39 0.161 0.783 0.352 1.178 0.574 0.401 0.224 0.811 0.489 1.23 0.794v0l-0.53 1.152c-0.698-0.45-1.45-0.841-2.256-1.173v0c-0.384-0.158-0.727-0.237-1.029-0.237-0.3-0.006-0.578 0.089-0.836 0.286-0.261 0.187-0.51 0.478-0.747 0.874-0.231 0.398-0.477 0.916-0.739 1.551v0c-0.265 0.642-0.456 1.186-0.572 1.631-0.113 0.454-0.15 0.837-0.109 1.148 0.045 0.32 0.172 0.583 0.382 0.788 0.214 0.213 0.516 0.401 0.907 0.561v0c0.787 0.324 1.601 0.583 2.442 0.775v0l-0.456 1.215c-0.953-0.172-1.835-0.425-2.648-0.76z" fill="#0d613a" data-fill-palette-color="primary"></path><path d="M68.861 177.218l1.512 0.434 2.659-9.246-1.512-0.435-1.134 3.946-3.996-1.149 1.135-3.946-1.492-0.429-2.659 9.247 1.492 0.429 1.149-3.995 3.995 1.148z" fill="#0d613a" data-fill-palette-color="primary"></path><path d="M78.336 178.97l1.547 0.135 0.69-7.865 0.213 0.019 1.614 7.667 1.618 0.142 2.924-7.269 0.214 0.018-0.69 7.866 1.567 0.137 0.841-9.585-2.717-0.238-2.804 7.3-1.48-7.676-2.696-0.236z" fill="#0d613a" data-fill-palette-color="primary"></path><path d="M91.756 179.708l6.061-0.287-0.066-1.377-4.509 0.214-0.133-2.806 3.663-0.174-0.064-1.346-3.663 0.173-0.129-2.724 4.51-0.213-0.065-1.357-6.06 0.287z" fill="#0d613a" data-fill-palette-color="primary"></path><path d="M100.91 178.99l5.996-0.93-0.212-1.363-4.461 0.692-0.431-2.776 3.624-0.562-0.207-1.332-3.623 0.562-0.418-2.695 4.461-0.692-0.209-1.342-5.995 0.93z" fill="#0d613a" data-fill-palette-color="primary"></path><path d="M106.89 169.592l2.641-0.721 2.167 7.942 1.518-0.414-2.168-7.942 2.612-0.712-0.366-1.34-6.769 1.847z" fill="#0d613a" data-fill-palette-color="primary"></path><path d="M117.993 165.919v0c-1.113 0.426-1.52 1.03-1.221 1.812v0c0.151 0.394 0.393 0.626 0.726 0.696v0c0.329 0.078 0.991 0.066 1.986-0.038v0c0.491-0.049 0.917-0.063 1.275-0.04 0.365 0.021 0.684 0.092 0.957 0.214 0.264 0.118 0.491 0.293 0.682 0.527 0.185 0.236 0.347 0.535 0.486 0.897v0c0.365 0.954 0.369 1.765 0.012 2.433-0.363 0.671-1.009 1.184-1.938 1.54v0c-0.375 0.143-0.775 0.271-1.199 0.382-0.424 0.111-0.878 0.212-1.361 0.301v0l-0.513 0.087-0.292-1.222c1.235-0.297 2.164-0.565 2.787-0.803v0c1.081-0.413 1.438-1.1 1.071-2.061v0c-0.143-0.375-0.371-0.609-0.684-0.701v0c-0.314-0.077-0.939-0.064-1.876 0.04v0c-0.471 0.064-0.893 0.086-1.265 0.067-0.372-0.018-0.701-0.089-0.988-0.212-0.288-0.123-0.542-0.311-0.762-0.562-0.214-0.254-0.397-0.581-0.55-0.981v0c-0.314-0.82-0.289-1.537 0.074-2.15 0.372-0.609 1.029-1.093 1.971-1.453v0c0.674-0.258 1.502-0.487 2.482-0.687v0l0.49-0.089 0.325 1.221c-0.637 0.164-1.178 0.312-1.623 0.445-0.447 0.127-0.798 0.239-1.052 0.337z" fill="#0d613a" data-fill-palette-color="primary"></path><path d="M130.605 169.315l1.331-0.798-4.059-6.772 0.184-0.11 5.808 5.259 1.393-0.835-1.901-7.601 0.184-0.111 4.059 6.773 1.349-0.809-4.946-8.253-2.339 1.402 2.016 7.556-5.704-5.345-2.322 1.391z" fill="#0d613a" data-fill-palette-color="primary"></path><path d="M141.284 162.525l1.202-0.983-0.904-1.927 2.862-2.341 1.709 1.267 1.218-0.996-7.943-5.934-2.403 1.967zM138.786 153.826l0.545-0.446 3.995 3.027-2.38 1.947z" fill="#0d613a" data-fill-palette-color="primary"></path><path d="M149.391 155.585l1.084-1.112-5.914-5.77 0.142-0.146 7.997 3.636 1.869-1.916-6.886-6.719-1.091 1.118 5.899 5.757-0.15 0.153-7.939-3.665-1.898 1.944z" fill="#0d613a" data-fill-palette-color="primary"></path><path d="M158.881 144.704v0l-2.003 2.66-7.686-5.786 2.002-2.661c0.442-0.588 0.886-1.025 1.332-1.311 0.446-0.287 0.909-0.432 1.39-0.436 0.485-0.01 0.996 0.115 1.534 0.374 0.536 0.25 1.125 0.617 1.767 1.1v0c0.571 0.43 1.072 0.863 1.503 1.298 0.427 0.441 0.735 0.903 0.925 1.387 0.19 0.484 0.234 1.003 0.132 1.557-0.102 0.554-0.4 1.16-0.896 1.818zM156.246 139.934v0c-0.462-0.348-0.878-0.623-1.246-0.824-0.363-0.197-0.7-0.31-1.011-0.339-0.315-0.024-0.612 0.042-0.891 0.199-0.275 0.151-0.548 0.406-0.819 0.764v0l-1.068 1.42 5.499 4.141 1.069-1.42c0.319-0.424 0.482-0.822 0.489-1.192 0.006-0.37-0.087-0.717-0.278-1.041-0.182-0.324-0.433-0.625-0.755-0.9-0.322-0.285-0.652-0.555-0.989-0.808z" fill="#0d613a" data-fill-palette-color="primary"></path><path d="M162.495 139.507l0.77-1.347-1.532-1.477 1.836-3.209 2.05 0.572 0.781-1.365-9.539-2.703-1.541 2.695zM157.053 132.276l0.35-0.612 4.812 1.4-1.527 2.669z" fill="#0d613a" data-fill-palette-color="primary"></path><path d="M159.665 127.707l1.092-2.51 7.549 3.284 0.627-1.443-7.548-3.284 1.079-2.482-1.273-0.554-2.8 6.434z" fill="#0d613a" data-fill-palette-color="primary"></path><path d="M170.902 122.023l1.874-5.771-1.311-0.425-1.395 4.293-2.671-0.867 1.132-3.488-1.282-0.416-1.133 3.487-2.593-0.842 1.394-4.294-1.292-0.42-1.874 5.771z" fill="#0d613a" data-fill-palette-color="primary"></path><path d="M4.841 93.097c0-1.162 0.942-2.105 2.105-2.104 1.162 0 2.105 0.942 2.105 2.104 0 1.162-0.942 2.105-2.105 2.105-1.162 0-2.105-0.942-2.105-2.105z" fill="#0d613a" data-fill-palette-color="primary"></path><path d="M170.143 93.097c0-1.162 0.942-2.105 2.105-2.104 1.162 0 2.105 0.942 2.104 2.104 0 1.162-0.942 2.105-2.104 2.105-1.162 0-2.105-0.942-2.105-2.105z" fill="#0d613a" data-fill-palette-color="primary"></path></g></svg></g></svg></g></svg></g></svg></g></svg></g></svg></g><defs></defs></svg><rect width="448" height="360" fill="none" stroke="none" visibility="hidden"></rect></g></svg></g></svg>